<?xml version="1.0" encoding="UTF-8" standalone="no"?>
<!DOCTYPE svg PUBLIC "-//W3C//DTD SVG 1.1//EN" "http://www.w3.org/Graphics/SVG/1.1/DTD/svg11.dtd">
<svg width="100%" height="100%" viewBox="0 0 64 64" version="1.1" xmlns="http://www.w3.org/2000/svg" xmlns:xlink="http://www.w3.org/1999/xlink" xml:space="preserve" xmlns:serif="http://www.serif.com/" style="fill-rule:evenodd;clip-rule:evenodd;stroke-linecap:round;stroke-linejoin:round;stroke-miterlimit:1.5;">
    <g transform="matrix(1,0,0,1,-1,0)">
        <g id="Love" transform="matrix(0.857932,0.503744,-0.506332,0.862339,-387.337,-578.64)">
            <path d="M661.5,286.9L660.9,286.9C657.2,287.1 653.6,289.3 651.4,292.6C649.4,295.7 648.9,299.4 650.1,302.6C651.5,306.4 655,309.8 658.1,312.8C658.8,313.5 659.5,314.2 660.1,314.8C662.3,317 664.5,319.1 666.6,321.1C667.8,322.2 669,323.4 670.2,324.6L671.5,325.9L672.9,324.7C676.9,321.3 680.9,317.5 684.8,313.4C685.2,313 685.6,312.5 686.1,312.1C689,309.1 692.7,305.4 693.5,300.9C694.1,297.2 693.2,293.6 691,291C688.9,288.5 685.8,287.1 682.4,287.1L681.9,287.1C676.5,287.3 673.3,290 671.4,292.4C669.6,289.9 666.3,286.9 661.5,286.9Z" style="fill:url(#_Linear1);"/>
        </g>
        <g transform="matrix(1,0,0,1,6.91934,-4.30615)">
            <path d="M6.304,26.515C30.903,21.595 54.619,25.305 54.377,26.273C54.135,27.241 49.134,48.454 48.973,49.745C48.811,51.035 22.113,51.035 18.08,51.035C14.047,51.035 5.497,26.676 6.304,26.515Z" style="fill:none;stroke:black;stroke-width:3.18px;"/>
        </g>
        <g transform="matrix(1,0,0,1,8,-1.82309)">
            <path d="M11.253,40.714C17.383,40.069 33.732,36.459 48.896,42.105" style="fill:none;stroke:black;stroke-width:3.18px;"/>
        </g>
        <g transform="matrix(1,0,0,1,7,-8.82309)">
            <path d="M9.208,38.856C15.338,38.21 36.229,33.774 51.393,39.42" style="fill:none;stroke:black;stroke-width:3.18px;"/>
        </g>
        <g transform="matrix(1,0,0,1,3,-3)">
            <path d="M1.2,20.617C1.2,20.617 3.297,17.713 5.555,19.004C7.814,20.294 7.988,19.864 10.65,27.526" style="fill:none;stroke:black;stroke-width:3.18px;"/>
        </g>
        <g transform="matrix(1,0,0,1,1.66962,-6.89203)">
            <path d="M19.16,48.944L23.806,58.494C23.806,58.494 46.714,58.946 54.973,58.752" style="fill:none;stroke:black;stroke-width:3.18px;"/>
        </g>
        <circle cx="30.587" cy="59.081" r="3.146" style="fill:none;stroke:black;stroke-width:3.18px;"/>
        <g transform="matrix(1,0,0,1,18,0)">
            <circle cx="30.587" cy="59.081" r="3.146" style="fill:none;stroke:black;stroke-width:3.18px;"/>
        </g>
    </g>
    <defs>
        <linearGradient id="_Linear1" x1="0" y1="0" x2="1" y2="0" gradientUnits="userSpaceOnUse" gradientTransform="matrix(44.226,0,0,39,649.456,306.4)"><stop offset="0" style="stop-color:rgb(255,0,0);stop-opacity:1"/><stop offset="0.33" style="stop-color:rgb(130,0,0);stop-opacity:1"/><stop offset="1" style="stop-color:rgb(111,0,0);stop-opacity:1"/><stop offset="1" style="stop-color:rgb(170,0,0);stop-opacity:1"/></linearGradient>
    </defs>
</svg>
